<svg width="111" height="158" viewBox="0 0 111 158" fill="none" xmlns="http://www.w3.org/2000/svg">
<path d="M0.490479 14.379C0.490479 9.69504 2.12767 6.18208 5.40203 3.84011C8.67639 1.49813 12.4185 0.327148 16.6284 0.327148C19.9027 0.327148 22.7093 1.26394 25.0482 3.13751C27.6209 4.77689 29.375 7.11887 30.3105 10.1634L52.0616 63.2091C53.231 66.2537 54.8682 67.776 56.9731 67.776C59.078 67.776 60.5983 66.2537 61.5338 63.2091L80.4783 10.1634C81.6478 6.88468 83.5188 4.4256 86.0915 2.78622C88.8981 1.14684 91.8217 0.327148 94.8621 0.327148C98.8381 0.327148 102.463 1.61523 105.738 4.19141C109.246 6.76757 111 10.1634 111 14.379C111 16.721 110.532 18.9458 109.597 21.0536L54.8682 147.52C53.231 151.033 51.1261 153.492 48.5533 154.897C46.2145 156.537 43.7588 157.356 41.1861 157.356C36.9762 157.356 33.1171 155.834 29.6089 152.79C26.3345 149.979 24.6973 146.583 24.6973 142.602C24.6973 140.494 25.1651 138.621 26.1006 136.981L45.0451 103.257C41.0691 102.086 37.9117 99.1584 35.5729 94.4745L1.54296 20.7023C0.841309 18.5945 0.490479 16.4868 0.490479 14.379Z" fill="#F5F876"/>
</svg>
